<?xml version="1.0" encoding="UTF-8" standalone="no"?>
<!-- Created with Inkscape (http://www.inkscape.org/) -->

<svg
   version="1.1"
   id="svg1"
   width="103.90677"
   height="17.179993"
   viewBox="0 0 103.90677 17.179993"
   sodipodi:docname="fetap32-logo-black-400px.png"
   inkscape:export-filename="fetap32-label.svg"
   inkscape:export-xdpi="96"
   inkscape:export-ydpi="96"
   xmlns:inkscape="http://www.inkscape.org/namespaces/inkscape"
   xmlns:sodipodi="http://sodipodi.sourceforge.net/DTD/sodipodi-0.dtd"
   xmlns="http://www.w3.org/2000/svg"
   xmlns:svg="http://www.w3.org/2000/svg">
  <defs
     id="defs1" />
  <sodipodi:namedview
     id="namedview1"
     pagecolor="#ffffff"
     bordercolor="#000000"
     borderopacity="0.25"
     inkscape:showpageshadow="2"
     inkscape:pageopacity="0.0"
     inkscape:pagecheckerboard="0"
     inkscape:deskcolor="#d1d1d1"
     showgrid="false">
    <inkscape:page
       x="0"
       y="0"
       width="103.90677"
       height="17.179993"
       id="page2"
       margin="0"
       bleed="0" />
  </sodipodi:namedview>
  <g
     inkscape:groupmode="layer"
     inkscape:label="Image"
     id="g1"
     transform="translate(-3.8005277,-3.4977387)">
    <path
       style="fill:#ffffff;fill-opacity:1"
       d="M 5.8807511,16.966896 C 5.6404732,16.826947 5.6314357,16.735809 5.6314357,14.452716 v -2.156184 l 0.1341278,-0.318673 c 0.07377,-0.175271 0.1623433,-0.35186 0.1968289,-0.392421 0.034485,-0.04056 1.0250355,-1.039077 2.2012221,-2.2189237 1.8529505,-1.858718 2.1669445,-2.152392 2.3513725,-2.199205 0.44361,-0.1126 0.421734,-0.130023 2.742102,2.183996 1.247784,1.2443707 2.19714,2.2333497 2.276031,2.3710257 0.254696,0.444484 0.277067,0.66351 0.278767,2.72936 9.14e-4,1.109668 -0.0203,1.99457 -0.05042,2.102997 -0.0286,0.102958 -0.117042,0.244675 -0.196536,0.314926 l -0.144534,0.12773 -2.165117,0.01479 -2.165119,0.01479 v -0.693962 -0.693963 l 0.907012,-0.901184 c 0.854152,-0.848665 0.91684,-0.899742 1.075652,-0.876434 0.280678,0.0412 0.514417,-0.03234 0.720448,-0.22665 0.352683,-0.332623 0.363647,-0.840182 0.02545,-1.178374 -0.216086,-0.216087 -0.445171,-0.283896 -0.77885,-0.230538 -0.38086,0.0609 -0.733085,0.580206 -0.655762,0.966823 0.02618,0.13092 -0.03727,0.212305 -0.619268,0.794307 l -0.648442,0.648442 -0.01386,-1.699182 -0.01386,-1.699183 0.210686,-0.228567 c 0.211546,-0.229501 0.243996,-0.339779 0.214669,-0.729547 -0.01769,-0.235114 -0.212409,-0.4916717 -0.460366,-0.6065557 -0.273482,-0.126711 -0.402681,-0.126714 -0.681748,-1.3e-5 -0.5771887,0.262052 -0.6662286,1.0097257 -0.168013,1.4108177 l 0.151419,0.121901 v 2.41063 c 0,1.325847 -0.01807,2.41063 -0.04015,2.41063 -0.02208,0 -0.3311264,-0.291673 -0.6867601,-0.648163 C 9.0712,14.819603 8.9835135,14.708945 8.9941434,14.577722 9.0228584,14.223246 8.9887934,14.096999 8.814624,13.912321 8.3526551,13.422491 7.6523811,13.581196 7.3771545,14.238098 c -0.2037191,0.48623 0.269316,1.053396 0.8785667,1.053396 h 0.2742901 l 0.833927,0.83276 c 0.4586599,0.458018 0.8339267,0.84774 0.8339267,0.866047 0,0.05795 -4.2166885,0.03509 -4.3171139,-0.02341 z M 5.0803148,9.8387003 C 5.0225784,9.8151403 4.9275156,9.7791863 4.8690643,9.7588013 4.755518,9.7192023 4.3815231,9.2084353 4.1557439,8.7846143 3.9245685,8.3506643 3.8334808,7.9981353 3.8064081,7.4326103 3.7720532,6.7149655 3.880489,6.4088605 4.3378756,5.9323226 4.6899876,5.5654672 5.2402778,5.108881 5.3303099,5.108881 c 0.031166,0 0.093954,-0.032639 0.1395297,-0.072531 0.1210383,-0.1059438 0.8672983,-0.4912305 1.066604,-0.5506773 0.094044,-0.02805 0.3257229,-0.1089173 0.5148411,-0.179704 0.3587835,-0.1342922 0.9060152,-0.2698426 1.3095112,-0.3243684 0.1299071,-0.017555 0.3661017,-0.054219 0.524877,-0.081477 0.973501,-0.1671241 2.7507911,-0.1630689 3.7003821,0.00844 0.173211,0.031284 0.362167,0.062608 0.419903,0.069607 0.05774,0.007 0.175834,0.027671 0.262439,0.045936 0.0866,0.018265 0.230762,0.045152 0.320349,0.05975 0.08959,0.014597 0.361212,0.099359 0.603609,0.1883603 0.242397,0.089001 0.519201,0.1853364 0.61512,0.2140785 0.163067,0.048863 0.699438,0.314105 1.105876,0.5468688 0.311176,0.1782087 0.93955,0.7023052 1.181268,0.98524 0.128423,0.1503197 0.284967,0.4027968 0.347878,0.5610603 0.09932,0.2498653 0.111229,0.3603141 0.09043,0.8388721 -0.03341,0.768743 -0.190052,1.196948 -0.715946,1.95718 -0.28591,0.413313 -0.429745,0.484183 -0.976685,0.481235 -0.946887,-0.0051 -2.00884,-0.449112 -2.25674,-0.943552 -0.147692,-0.294567 -0.177956,-1.104536 -0.05265,-1.408995 0.203871,-0.495344 0.370208,-0.8490142 0.41435,-0.8810016 C 14.012465,6.574501 13.770447,6.4608902 13.126232,6.2387271 12.495315,6.0211501 12.540668,6.030431 11.536302,5.9133668 10.901318,5.839356 10.705195,5.8366733 10.09289,5.8936225 9.2757915,5.9696191 8.9971595,6.0300155 8.3083082,6.2804494 7.6053298,6.5360192 7.4685051,6.5954805 7.4685051,6.6454112 c 0,0.024123 0.045884,0.1445818 0.1019645,0.2676861 0.2742757,0.602072 0.2903538,0.673994 0.2910316,1.301853 5.837e-4,0.54073 -0.012292,0.630352 -0.1093416,0.761072 -0.2349129,0.316414 -0.7373323,0.592542 -1.3858962,0.761686 -0.435347,0.113537 -1.1228817,0.167533 -1.2859486,0.100992 z"
       id="path1" />
    <text
       xml:space="preserve"
       style="font-size:18.5867px;text-align:start;writing-mode:lr-tb;direction:ltr;text-anchor:start;fill:#ffffff;fill-opacity:1;stroke-width:1.5489"
       x="25.446627"
       y="16.902308"
       id="text1"><tspan
         sodipodi:role="line"
         id="tspan1"
         x="25.446627"
         y="16.902308"
         style="font-style:normal;font-variant:normal;font-weight:normal;font-stretch:normal;font-size:18.5867px;font-family:'Roboto Slab';-inkscape-font-specification:'Roboto Slab, Normal';font-variant-ligatures:normal;font-variant-caps:normal;font-variant-numeric:normal;font-variant-east-asian:normal;fill:#ffffff;fill-opacity:1;stroke-width:1.5489">FeTAp-32</tspan></text>
  </g>
</svg>
